<mxfile host="app.diagrams.net" modified="2023-04-25T09:58:25.682Z" agent="Mozilla/5.0 (Windows NT 10.0; Win64; x64) AppleWebKit/537.36 (KHTML, like Gecko) Chrome/110.0.0.0 Safari/537.36" etag="i6TiREZkfWMemRghq4gV" version="21.2.1" type="device" pages="7">
  <diagram name="Actor" id="d1h7VzrCHTBvLNKXR-SF">
    <mxGraphModel dx="618" dy="1024" grid="1" gridSize="10" guides="1" tooltips="1" connect="1" arrows="1" fold="1" page="1" pageScale="1" pageWidth="827" pageHeight="1169" math="0" shadow="0">
      <root>
        <mxCell id="0" />
        <mxCell id="1" parent="0" />
        <mxCell id="aC3r579gm5nrVbK1ICY6-1" value="&lt;font style=&quot;font-size: 16px;&quot;&gt;Morgan Freeman&lt;/font&gt;" style="ellipse;whiteSpace=wrap;html=1;aspect=fixed;" vertex="1" parent="1">
          <mxGeometry x="210" y="490" width="140" height="140" as="geometry" />
        </mxCell>
        <mxCell id="aC3r579gm5nrVbK1ICY6-2" value="&lt;font style=&quot;font-size: 18px;&quot;&gt;2&lt;/font&gt;" style="ellipse;whiteSpace=wrap;html=1;aspect=fixed;" vertex="1" parent="1">
          <mxGeometry x="255" y="490" width="50" height="50" as="geometry" />
        </mxCell>
        <mxCell id="aC3r579gm5nrVbK1ICY6-3" value="&lt;font style=&quot;font-size: 16px;&quot;&gt;Tim Robbins&lt;/font&gt;" style="ellipse;whiteSpace=wrap;html=1;aspect=fixed;" vertex="1" parent="1">
          <mxGeometry x="290" y="370" width="140" height="140" as="geometry" />
        </mxCell>
        <mxCell id="aC3r579gm5nrVbK1ICY6-4" value="&lt;font style=&quot;font-size: 18px;&quot;&gt;1&lt;/font&gt;" style="ellipse;whiteSpace=wrap;html=1;aspect=fixed;" vertex="1" parent="1">
          <mxGeometry x="335" y="370" width="50" height="50" as="geometry" />
        </mxCell>
        <mxCell id="aC3r579gm5nrVbK1ICY6-5" value="&lt;font style=&quot;font-size: 16px;&quot;&gt;Marlon Brando&lt;/font&gt;" style="ellipse;whiteSpace=wrap;html=1;aspect=fixed;" vertex="1" parent="1">
          <mxGeometry x="370" y="490" width="140" height="140" as="geometry" />
        </mxCell>
        <mxCell id="aC3r579gm5nrVbK1ICY6-6" value="&lt;font style=&quot;font-size: 18px;&quot;&gt;3&lt;/font&gt;" style="ellipse;whiteSpace=wrap;html=1;aspect=fixed;" vertex="1" parent="1">
          <mxGeometry x="415" y="490" width="50" height="50" as="geometry" />
        </mxCell>
        <mxCell id="aC3r579gm5nrVbK1ICY6-7" value="&lt;font style=&quot;font-size: 16px;&quot;&gt;Al Pacino&lt;/font&gt;" style="ellipse;whiteSpace=wrap;html=1;aspect=fixed;" vertex="1" parent="1">
          <mxGeometry x="210" y="630" width="140" height="140" as="geometry" />
        </mxCell>
        <mxCell id="aC3r579gm5nrVbK1ICY6-8" value="&lt;font style=&quot;font-size: 18px;&quot;&gt;4&lt;/font&gt;" style="ellipse;whiteSpace=wrap;html=1;aspect=fixed;" vertex="1" parent="1">
          <mxGeometry x="255" y="630" width="50" height="50" as="geometry" />
        </mxCell>
        <mxCell id="aC3r579gm5nrVbK1ICY6-9" value="&lt;font style=&quot;font-size: 16px;&quot;&gt;Robert De Niro&lt;/font&gt;" style="ellipse;whiteSpace=wrap;html=1;aspect=fixed;" vertex="1" parent="1">
          <mxGeometry x="370" y="630" width="140" height="140" as="geometry" />
        </mxCell>
        <mxCell id="aC3r579gm5nrVbK1ICY6-10" value="&lt;font style=&quot;font-size: 18px;&quot;&gt;5&lt;/font&gt;" style="ellipse;whiteSpace=wrap;html=1;aspect=fixed;" vertex="1" parent="1">
          <mxGeometry x="415" y="630" width="50" height="50" as="geometry" />
        </mxCell>
        <mxCell id="aC3r579gm5nrVbK1ICY6-11" value="&lt;font style=&quot;font-size: 16px;&quot;&gt;Christian Bale&lt;/font&gt;" style="ellipse;whiteSpace=wrap;html=1;aspect=fixed;" vertex="1" parent="1">
          <mxGeometry x="210" y="770" width="140" height="140" as="geometry" />
        </mxCell>
        <mxCell id="aC3r579gm5nrVbK1ICY6-12" value="&lt;font style=&quot;font-size: 18px;&quot;&gt;6&lt;/font&gt;" style="ellipse;whiteSpace=wrap;html=1;aspect=fixed;" vertex="1" parent="1">
          <mxGeometry x="255" y="770" width="50" height="50" as="geometry" />
        </mxCell>
        <mxCell id="aC3r579gm5nrVbK1ICY6-13" value="&lt;font style=&quot;font-size: 16px;&quot;&gt;Heath Ledger&lt;/font&gt;" style="ellipse;whiteSpace=wrap;html=1;aspect=fixed;" vertex="1" parent="1">
          <mxGeometry x="370" y="770" width="140" height="140" as="geometry" />
        </mxCell>
        <mxCell id="aC3r579gm5nrVbK1ICY6-14" value="&lt;font style=&quot;font-size: 18px;&quot;&gt;7&lt;/font&gt;" style="ellipse;whiteSpace=wrap;html=1;aspect=fixed;" vertex="1" parent="1">
          <mxGeometry x="415" y="770" width="50" height="50" as="geometry" />
        </mxCell>
        <mxCell id="aC3r579gm5nrVbK1ICY6-15" value="&lt;font style=&quot;font-size: 16px;&quot;&gt;Jack Nicholson&lt;/font&gt;" style="ellipse;whiteSpace=wrap;html=1;aspect=fixed;" vertex="1" parent="1">
          <mxGeometry x="210" y="910" width="140" height="140" as="geometry" />
        </mxCell>
        <mxCell id="aC3r579gm5nrVbK1ICY6-16" value="&lt;font style=&quot;font-size: 18px;&quot;&gt;8&lt;/font&gt;" style="ellipse;whiteSpace=wrap;html=1;aspect=fixed;" vertex="1" parent="1">
          <mxGeometry x="255" y="910" width="50" height="50" as="geometry" />
        </mxCell>
        <mxCell id="aC3r579gm5nrVbK1ICY6-17" value="&lt;font style=&quot;font-size: 16px;&quot;&gt;Henry Fonda&lt;/font&gt;" style="ellipse;whiteSpace=wrap;html=1;aspect=fixed;" vertex="1" parent="1">
          <mxGeometry x="370" y="910" width="140" height="140" as="geometry" />
        </mxCell>
        <mxCell id="aC3r579gm5nrVbK1ICY6-18" value="&lt;font style=&quot;font-size: 18px;&quot;&gt;9&lt;/font&gt;" style="ellipse;whiteSpace=wrap;html=1;aspect=fixed;" vertex="1" parent="1">
          <mxGeometry x="415" y="910" width="50" height="50" as="geometry" />
        </mxCell>
        <mxCell id="aC3r579gm5nrVbK1ICY6-19" value="&lt;font style=&quot;font-size: 16px;&quot;&gt;Liam Neeson&lt;/font&gt;" style="ellipse;whiteSpace=wrap;html=1;aspect=fixed;" vertex="1" parent="1">
          <mxGeometry x="290" y="1040" width="140" height="140" as="geometry" />
        </mxCell>
        <mxCell id="aC3r579gm5nrVbK1ICY6-20" value="&lt;font style=&quot;font-size: 18px;&quot;&gt;10&lt;/font&gt;" style="ellipse;whiteSpace=wrap;html=1;aspect=fixed;" vertex="1" parent="1">
          <mxGeometry x="335" y="1040" width="50" height="50" as="geometry" />
        </mxCell>
      </root>
    </mxGraphModel>
  </diagram>
  <diagram id="iOaHhzFnTi0j0l4UmFFO" name="Movie">
    <mxGraphModel dx="850" dy="2577" grid="1" gridSize="10" guides="1" tooltips="1" connect="1" arrows="1" fold="1" page="1" pageScale="1" pageWidth="827" pageHeight="1169" math="0" shadow="0">
      <root>
        <mxCell id="0" />
        <mxCell id="1" parent="0" />
        <mxCell id="DsdiAk1NiDYgs60gsbEH-2" value="&lt;font style=&quot;font-size: 16px;&quot;&gt;The Godfather&lt;/font&gt;" style="whiteSpace=wrap;html=1;aspect=fixed;rounded=1;arcSize=25;" vertex="1" parent="1">
          <mxGeometry x="300" y="-100" width="140" height="140" as="geometry" />
        </mxCell>
        <mxCell id="DsdiAk1NiDYgs60gsbEH-3" value="&lt;font style=&quot;font-size: 18px;&quot;&gt;2&lt;/font&gt;" style="ellipse;whiteSpace=wrap;html=1;aspect=fixed;" vertex="1" parent="1">
          <mxGeometry x="345" y="-100" width="50" height="50" as="geometry" />
        </mxCell>
        <mxCell id="DsdiAk1NiDYgs60gsbEH-4" value="&lt;font style=&quot;font-size: 16px;&quot;&gt;The Shawshank Redemption&lt;/font&gt;" style="whiteSpace=wrap;html=1;aspect=fixed;rounded=1;arcSize=25;" vertex="1" parent="1">
          <mxGeometry x="300" y="-320" width="140" height="140" as="geometry" />
        </mxCell>
        <mxCell id="DsdiAk1NiDYgs60gsbEH-5" value="&lt;font style=&quot;font-size: 18px;&quot;&gt;1&lt;/font&gt;" style="ellipse;whiteSpace=wrap;html=1;aspect=fixed;" vertex="1" parent="1">
          <mxGeometry x="345" y="-320" width="50" height="50" as="geometry" />
        </mxCell>
        <mxCell id="DsdiAk1NiDYgs60gsbEH-6" value="&lt;font style=&quot;font-size: 16px;&quot;&gt;The Godfather: Part II&lt;/font&gt;" style="whiteSpace=wrap;html=1;aspect=fixed;rounded=1;arcSize=25;" vertex="1" parent="1">
          <mxGeometry x="300" y="100" width="140" height="140" as="geometry" />
        </mxCell>
        <mxCell id="DsdiAk1NiDYgs60gsbEH-7" value="&lt;font style=&quot;font-size: 18px;&quot;&gt;3&lt;/font&gt;" style="ellipse;whiteSpace=wrap;html=1;aspect=fixed;" vertex="1" parent="1">
          <mxGeometry x="345" y="100" width="50" height="50" as="geometry" />
        </mxCell>
        <mxCell id="DsdiAk1NiDYgs60gsbEH-8" value="&lt;font style=&quot;font-size: 16px;&quot;&gt;12 Angry Men&lt;/font&gt;" style="whiteSpace=wrap;html=1;aspect=fixed;rounded=1;arcSize=25;" vertex="1" parent="1">
          <mxGeometry x="300" y="514" width="140" height="140" as="geometry" />
        </mxCell>
        <mxCell id="DsdiAk1NiDYgs60gsbEH-9" value="&lt;font style=&quot;font-size: 18px;&quot;&gt;5&lt;/font&gt;" style="ellipse;whiteSpace=wrap;html=1;aspect=fixed;" vertex="1" parent="1">
          <mxGeometry x="345" y="514" width="50" height="50" as="geometry" />
        </mxCell>
        <mxCell id="DsdiAk1NiDYgs60gsbEH-10" value="&lt;font style=&quot;font-size: 16px;&quot;&gt;Schindler&#39;&#39;s List&lt;/font&gt;" style="whiteSpace=wrap;html=1;aspect=fixed;rounded=1;arcSize=25;" vertex="1" parent="1">
          <mxGeometry x="300" y="720" width="140" height="140" as="geometry" />
        </mxCell>
        <mxCell id="DsdiAk1NiDYgs60gsbEH-11" value="&lt;font style=&quot;font-size: 18px;&quot;&gt;6&lt;/font&gt;" style="ellipse;whiteSpace=wrap;html=1;aspect=fixed;" vertex="1" parent="1">
          <mxGeometry x="345" y="720" width="50" height="50" as="geometry" />
        </mxCell>
        <mxCell id="DsdiAk1NiDYgs60gsbEH-12" value="&lt;font style=&quot;font-size: 12px;&quot;&gt;The Lord of the Rings: The Return of the King&lt;/font&gt;" style="whiteSpace=wrap;html=1;aspect=fixed;rounded=1;arcSize=25;" vertex="1" parent="1">
          <mxGeometry x="300" y="930" width="140" height="140" as="geometry" />
        </mxCell>
        <mxCell id="DsdiAk1NiDYgs60gsbEH-13" value="&lt;font style=&quot;font-size: 18px;&quot;&gt;7&lt;/font&gt;" style="ellipse;whiteSpace=wrap;html=1;aspect=fixed;" vertex="1" parent="1">
          <mxGeometry x="345" y="930" width="50" height="50" as="geometry" />
        </mxCell>
        <mxCell id="DsdiAk1NiDYgs60gsbEH-14" value="&lt;font style=&quot;font-size: 16px;&quot;&gt;Pulp Fiction&lt;/font&gt;" style="whiteSpace=wrap;html=1;aspect=fixed;rounded=1;arcSize=25;" vertex="1" parent="1">
          <mxGeometry x="300" y="1130" width="140" height="140" as="geometry" />
        </mxCell>
        <mxCell id="DsdiAk1NiDYgs60gsbEH-15" value="&lt;font style=&quot;font-size: 18px;&quot;&gt;8&lt;/font&gt;" style="ellipse;whiteSpace=wrap;html=1;aspect=fixed;" vertex="1" parent="1">
          <mxGeometry x="345" y="1130" width="50" height="50" as="geometry" />
        </mxCell>
        <mxCell id="DsdiAk1NiDYgs60gsbEH-16" value="&lt;font style=&quot;font-size: 16px;&quot;&gt;The Dark Knight&lt;/font&gt;" style="whiteSpace=wrap;html=1;aspect=fixed;rounded=1;arcSize=25;" vertex="1" parent="1">
          <mxGeometry x="300" y="300" width="140" height="140" as="geometry" />
        </mxCell>
        <mxCell id="DsdiAk1NiDYgs60gsbEH-17" value="&lt;font style=&quot;font-size: 18px;&quot;&gt;4&lt;/font&gt;" style="ellipse;whiteSpace=wrap;html=1;aspect=fixed;" vertex="1" parent="1">
          <mxGeometry x="345" y="300" width="50" height="50" as="geometry" />
        </mxCell>
        <mxCell id="DsdiAk1NiDYgs60gsbEH-18" value="&lt;font style=&quot;font-size: 10px;&quot;&gt;The Lord of the Rings: The Fellowship of the Ring&lt;/font&gt;" style="whiteSpace=wrap;html=1;aspect=fixed;rounded=1;arcSize=25;" vertex="1" parent="1">
          <mxGeometry x="300" y="1340" width="140" height="140" as="geometry" />
        </mxCell>
        <mxCell id="DsdiAk1NiDYgs60gsbEH-19" value="&lt;span style=&quot;font-size: 18px;&quot;&gt;9&lt;/span&gt;" style="ellipse;whiteSpace=wrap;html=1;aspect=fixed;" vertex="1" parent="1">
          <mxGeometry x="345" y="1340" width="50" height="50" as="geometry" />
        </mxCell>
        <mxCell id="DsdiAk1NiDYgs60gsbEH-20" value="&lt;font style=&quot;font-size: 16px;&quot;&gt;Forrest Gump&lt;/font&gt;" style="whiteSpace=wrap;html=1;aspect=fixed;rounded=1;arcSize=25;" vertex="1" parent="1">
          <mxGeometry x="300" y="1520" width="140" height="140" as="geometry" />
        </mxCell>
        <mxCell id="DsdiAk1NiDYgs60gsbEH-21" value="&lt;span style=&quot;font-size: 18px;&quot;&gt;10&lt;/span&gt;" style="ellipse;whiteSpace=wrap;html=1;aspect=fixed;" vertex="1" parent="1">
          <mxGeometry x="345" y="1520" width="50" height="50" as="geometry" />
        </mxCell>
      </root>
    </mxGraphModel>
  </diagram>
  <diagram id="RNFQmVdMq7q5TnyI9vcS" name="Director">
    <mxGraphModel dx="850" dy="1408" grid="1" gridSize="10" guides="1" tooltips="1" connect="1" arrows="1" fold="1" page="1" pageScale="1" pageWidth="827" pageHeight="1169" math="0" shadow="0">
      <root>
        <mxCell id="0" />
        <mxCell id="1" parent="0" />
        <mxCell id="sjMYzuddFvjiPaHwJSDG-1" value="&lt;font style=&quot;font-size: 16px;&quot;&gt;Francis Ford Coppola&#39;&lt;/font&gt;" style="ellipse;whiteSpace=wrap;html=1;aspect=fixed;" vertex="1" parent="1">
          <mxGeometry x="210" y="490" width="140" height="140" as="geometry" />
        </mxCell>
        <mxCell id="sjMYzuddFvjiPaHwJSDG-2" value="&lt;font style=&quot;font-size: 18px;&quot;&gt;2&lt;/font&gt;" style="ellipse;whiteSpace=wrap;html=1;aspect=fixed;" vertex="1" parent="1">
          <mxGeometry x="255" y="490" width="50" height="50" as="geometry" />
        </mxCell>
        <mxCell id="sjMYzuddFvjiPaHwJSDG-3" value="&lt;font style=&quot;font-size: 16px;&quot;&gt;Frank Darabont&lt;/font&gt;" style="ellipse;whiteSpace=wrap;html=1;aspect=fixed;" vertex="1" parent="1">
          <mxGeometry x="290" y="340" width="140" height="140" as="geometry" />
        </mxCell>
        <mxCell id="sjMYzuddFvjiPaHwJSDG-4" value="&lt;font style=&quot;font-size: 18px;&quot;&gt;1&lt;/font&gt;" style="ellipse;whiteSpace=wrap;html=1;aspect=fixed;" vertex="1" parent="1">
          <mxGeometry x="335" y="340" width="50" height="50" as="geometry" />
        </mxCell>
        <mxCell id="sjMYzuddFvjiPaHwJSDG-5" value="&lt;font style=&quot;font-size: 16px;&quot;&gt;Christopher Nolan&lt;/font&gt;" style="ellipse;whiteSpace=wrap;html=1;aspect=fixed;" vertex="1" parent="1">
          <mxGeometry x="370" y="490" width="140" height="140" as="geometry" />
        </mxCell>
        <mxCell id="sjMYzuddFvjiPaHwJSDG-6" value="&lt;font style=&quot;font-size: 18px;&quot;&gt;3&lt;/font&gt;" style="ellipse;whiteSpace=wrap;html=1;aspect=fixed;" vertex="1" parent="1">
          <mxGeometry x="415" y="490" width="50" height="50" as="geometry" />
        </mxCell>
        <mxCell id="sjMYzuddFvjiPaHwJSDG-7" value="&lt;font style=&quot;font-size: 16px;&quot;&gt;Sidney Lumet&lt;/font&gt;" style="ellipse;whiteSpace=wrap;html=1;aspect=fixed;" vertex="1" parent="1">
          <mxGeometry x="105" y="620" width="140" height="140" as="geometry" />
        </mxCell>
        <mxCell id="sjMYzuddFvjiPaHwJSDG-8" value="&lt;font style=&quot;font-size: 18px;&quot;&gt;4&lt;/font&gt;" style="ellipse;whiteSpace=wrap;html=1;aspect=fixed;" vertex="1" parent="1">
          <mxGeometry x="150" y="620" width="50" height="50" as="geometry" />
        </mxCell>
        <mxCell id="sjMYzuddFvjiPaHwJSDG-9" value="&lt;font style=&quot;font-size: 16px;&quot;&gt;Steven Spielberg&lt;/font&gt;" style="ellipse;whiteSpace=wrap;html=1;aspect=fixed;" vertex="1" parent="1">
          <mxGeometry x="460" y="620" width="140" height="140" as="geometry" />
        </mxCell>
        <mxCell id="sjMYzuddFvjiPaHwJSDG-10" value="&lt;font style=&quot;font-size: 18px;&quot;&gt;5&lt;/font&gt;" style="ellipse;whiteSpace=wrap;html=1;aspect=fixed;" vertex="1" parent="1">
          <mxGeometry x="505" y="620" width="50" height="50" as="geometry" />
        </mxCell>
        <mxCell id="sjMYzuddFvjiPaHwJSDG-11" value="&lt;font style=&quot;font-size: 16px;&quot;&gt;Peter Jackson&lt;/font&gt;" style="ellipse;whiteSpace=wrap;html=1;aspect=fixed;" vertex="1" parent="1">
          <mxGeometry x="200" y="780" width="140" height="140" as="geometry" />
        </mxCell>
        <mxCell id="sjMYzuddFvjiPaHwJSDG-12" value="&lt;font style=&quot;font-size: 18px;&quot;&gt;6&lt;/font&gt;" style="ellipse;whiteSpace=wrap;html=1;aspect=fixed;" vertex="1" parent="1">
          <mxGeometry x="245" y="780" width="50" height="50" as="geometry" />
        </mxCell>
        <mxCell id="sjMYzuddFvjiPaHwJSDG-13" value="&lt;font style=&quot;font-size: 16px;&quot;&gt;Quentin Tarantino&lt;/font&gt;" style="ellipse;whiteSpace=wrap;html=1;aspect=fixed;" vertex="1" parent="1">
          <mxGeometry x="385" y="780" width="140" height="140" as="geometry" />
        </mxCell>
        <mxCell id="sjMYzuddFvjiPaHwJSDG-14" value="&lt;font style=&quot;font-size: 18px;&quot;&gt;7&lt;/font&gt;" style="ellipse;whiteSpace=wrap;html=1;aspect=fixed;" vertex="1" parent="1">
          <mxGeometry x="430" y="780" width="50" height="50" as="geometry" />
        </mxCell>
        <mxCell id="sjMYzuddFvjiPaHwJSDG-15" value="&lt;font style=&quot;font-size: 16px;&quot;&gt;Robert Zemeckis&lt;/font&gt;" style="ellipse;whiteSpace=wrap;html=1;aspect=fixed;" vertex="1" parent="1">
          <mxGeometry x="290" y="930" width="140" height="140" as="geometry" />
        </mxCell>
        <mxCell id="sjMYzuddFvjiPaHwJSDG-16" value="&lt;font style=&quot;font-size: 18px;&quot;&gt;8&lt;/font&gt;" style="ellipse;whiteSpace=wrap;html=1;aspect=fixed;" vertex="1" parent="1">
          <mxGeometry x="335" y="930" width="50" height="50" as="geometry" />
        </mxCell>
      </root>
    </mxGraphModel>
  </diagram>
  <diagram id="Iv-onGrv8-MaaMPdyaHN" name="Recommends ">
    <mxGraphModel dx="850" dy="2577" grid="1" gridSize="10" guides="1" tooltips="1" connect="1" arrows="1" fold="1" page="1" pageScale="1" pageWidth="827" pageHeight="1169" math="0" shadow="0">
      <root>
        <mxCell id="0" />
        <mxCell id="1" parent="0" />
        <mxCell id="gU585ekk-2v_MhJQH-Y2-2" style="edgeStyle=orthogonalEdgeStyle;rounded=0;orthogonalLoop=1;jettySize=auto;html=1;entryX=0;entryY=0.5;entryDx=0;entryDy=0;" edge="1" parent="1" source="CPikV68TQurJL_7mSSEU-1" target="KfDdw2zbIyNiD2uA_Mm_-5">
          <mxGeometry relative="1" as="geometry">
            <Array as="points">
              <mxPoint x="540" y="-30" />
              <mxPoint x="540" y="170" />
            </Array>
          </mxGeometry>
        </mxCell>
        <mxCell id="CPikV68TQurJL_7mSSEU-1" value="&lt;font style=&quot;font-size: 16px;&quot;&gt;Francis Ford Coppola&#39;&lt;/font&gt;" style="ellipse;whiteSpace=wrap;html=1;aspect=fixed;" vertex="1" parent="1">
          <mxGeometry x="295" y="-100" width="140" height="140" as="geometry" />
        </mxCell>
        <mxCell id="CPikV68TQurJL_7mSSEU-2" value="&lt;font style=&quot;font-size: 18px;&quot;&gt;2&lt;/font&gt;" style="ellipse;whiteSpace=wrap;html=1;aspect=fixed;" vertex="1" parent="1">
          <mxGeometry x="340" y="-100" width="50" height="50" as="geometry" />
        </mxCell>
        <mxCell id="gU585ekk-2v_MhJQH-Y2-1" style="edgeStyle=orthogonalEdgeStyle;rounded=0;orthogonalLoop=1;jettySize=auto;html=1;" edge="1" parent="1" source="CPikV68TQurJL_7mSSEU-3" target="KfDdw2zbIyNiD2uA_Mm_-9">
          <mxGeometry relative="1" as="geometry">
            <Array as="points">
              <mxPoint x="500" y="-250" />
              <mxPoint x="500" y="790" />
            </Array>
          </mxGeometry>
        </mxCell>
        <mxCell id="CPikV68TQurJL_7mSSEU-3" value="&lt;font style=&quot;font-size: 16px;&quot;&gt;Frank Darabont&lt;/font&gt;" style="ellipse;whiteSpace=wrap;html=1;aspect=fixed;" vertex="1" parent="1">
          <mxGeometry x="295" y="-320" width="140" height="140" as="geometry" />
        </mxCell>
        <mxCell id="CPikV68TQurJL_7mSSEU-4" value="&lt;font style=&quot;font-size: 18px;&quot;&gt;1&lt;/font&gt;" style="ellipse;whiteSpace=wrap;html=1;aspect=fixed;" vertex="1" parent="1">
          <mxGeometry x="340" y="-320" width="50" height="50" as="geometry" />
        </mxCell>
        <mxCell id="gU585ekk-2v_MhJQH-Y2-3" style="edgeStyle=orthogonalEdgeStyle;rounded=0;orthogonalLoop=1;jettySize=auto;html=1;" edge="1" parent="1" source="CPikV68TQurJL_7mSSEU-5" target="KfDdw2zbIyNiD2uA_Mm_-3">
          <mxGeometry relative="1" as="geometry">
            <Array as="points">
              <mxPoint x="365" y="60" />
              <mxPoint x="590" y="60" />
              <mxPoint x="590" y="-250" />
            </Array>
          </mxGeometry>
        </mxCell>
        <mxCell id="gU585ekk-2v_MhJQH-Y2-10" style="edgeStyle=orthogonalEdgeStyle;rounded=0;orthogonalLoop=1;jettySize=auto;html=1;entryX=0;entryY=0.5;entryDx=0;entryDy=0;" edge="1" parent="1" source="CPikV68TQurJL_7mSSEU-5" target="KfDdw2zbIyNiD2uA_Mm_-19">
          <mxGeometry relative="1" as="geometry" />
        </mxCell>
        <mxCell id="gU585ekk-2v_MhJQH-Y2-12" style="edgeStyle=orthogonalEdgeStyle;rounded=0;orthogonalLoop=1;jettySize=auto;html=1;entryX=0.5;entryY=0;entryDx=0;entryDy=0;" edge="1" parent="1" source="CPikV68TQurJL_7mSSEU-5" target="KfDdw2zbIyNiD2uA_Mm_-10">
          <mxGeometry relative="1" as="geometry">
            <Array as="points">
              <mxPoint x="365" y="260" />
              <mxPoint x="720" y="260" />
              <mxPoint x="720" y="690" />
              <mxPoint x="840" y="690" />
            </Array>
          </mxGeometry>
        </mxCell>
        <mxCell id="CPikV68TQurJL_7mSSEU-5" value="&lt;font style=&quot;font-size: 16px;&quot;&gt;Christopher Nolan&lt;/font&gt;" style="ellipse;whiteSpace=wrap;html=1;aspect=fixed;" vertex="1" parent="1">
          <mxGeometry x="295" y="90" width="140" height="140" as="geometry" />
        </mxCell>
        <mxCell id="CPikV68TQurJL_7mSSEU-6" value="&lt;font style=&quot;font-size: 18px;&quot;&gt;3&lt;/font&gt;" style="ellipse;whiteSpace=wrap;html=1;aspect=fixed;" vertex="1" parent="1">
          <mxGeometry x="340" y="90" width="50" height="50" as="geometry" />
        </mxCell>
        <mxCell id="gU585ekk-2v_MhJQH-Y2-7" style="edgeStyle=orthogonalEdgeStyle;rounded=0;orthogonalLoop=1;jettySize=auto;html=1;entryX=0;entryY=0.5;entryDx=0;entryDy=0;" edge="1" parent="1" source="CPikV68TQurJL_7mSSEU-7" target="KfDdw2zbIyNiD2uA_Mm_-1">
          <mxGeometry relative="1" as="geometry">
            <Array as="points">
              <mxPoint x="640" y="370" />
              <mxPoint x="640" y="-30" />
            </Array>
          </mxGeometry>
        </mxCell>
        <mxCell id="CPikV68TQurJL_7mSSEU-7" value="&lt;font style=&quot;font-size: 16px;&quot;&gt;Sidney Lumet&lt;/font&gt;" style="ellipse;whiteSpace=wrap;html=1;aspect=fixed;" vertex="1" parent="1">
          <mxGeometry x="295" y="300" width="140" height="140" as="geometry" />
        </mxCell>
        <mxCell id="CPikV68TQurJL_7mSSEU-8" value="&lt;font style=&quot;font-size: 18px;&quot;&gt;4&lt;/font&gt;" style="ellipse;whiteSpace=wrap;html=1;aspect=fixed;" vertex="1" parent="1">
          <mxGeometry x="340" y="300" width="50" height="50" as="geometry" />
        </mxCell>
        <mxCell id="gU585ekk-2v_MhJQH-Y2-8" style="edgeStyle=orthogonalEdgeStyle;rounded=0;orthogonalLoop=1;jettySize=auto;html=1;entryX=0.25;entryY=1;entryDx=0;entryDy=0;" edge="1" parent="1" source="CPikV68TQurJL_7mSSEU-9" target="KfDdw2zbIyNiD2uA_Mm_-3">
          <mxGeometry relative="1" as="geometry">
            <Array as="points">
              <mxPoint x="690" y="590" />
              <mxPoint x="690" y="-140" />
              <mxPoint x="805" y="-140" />
            </Array>
          </mxGeometry>
        </mxCell>
        <mxCell id="CPikV68TQurJL_7mSSEU-9" value="&lt;font style=&quot;font-size: 16px;&quot;&gt;Steven Spielberg&lt;/font&gt;" style="ellipse;whiteSpace=wrap;html=1;aspect=fixed;" vertex="1" parent="1">
          <mxGeometry x="295" y="520" width="140" height="140" as="geometry" />
        </mxCell>
        <mxCell id="CPikV68TQurJL_7mSSEU-10" value="&lt;font style=&quot;font-size: 18px;&quot;&gt;5&lt;/font&gt;" style="ellipse;whiteSpace=wrap;html=1;aspect=fixed;" vertex="1" parent="1">
          <mxGeometry x="340" y="520" width="50" height="50" as="geometry" />
        </mxCell>
        <mxCell id="gU585ekk-2v_MhJQH-Y2-9" style="edgeStyle=orthogonalEdgeStyle;rounded=0;orthogonalLoop=1;jettySize=auto;html=1;entryX=0.5;entryY=0;entryDx=0;entryDy=0;" edge="1" parent="1" source="CPikV68TQurJL_7mSSEU-11" target="KfDdw2zbIyNiD2uA_Mm_-4">
          <mxGeometry relative="1" as="geometry">
            <Array as="points">
              <mxPoint x="620" y="750" />
              <mxPoint x="620" y="-360" />
              <mxPoint x="840" y="-360" />
            </Array>
          </mxGeometry>
        </mxCell>
        <mxCell id="CPikV68TQurJL_7mSSEU-11" value="&lt;font style=&quot;font-size: 16px;&quot;&gt;Peter Jackson&lt;/font&gt;" style="ellipse;whiteSpace=wrap;html=1;aspect=fixed;" vertex="1" parent="1">
          <mxGeometry x="295" y="715" width="140" height="140" as="geometry" />
        </mxCell>
        <mxCell id="CPikV68TQurJL_7mSSEU-12" value="&lt;font style=&quot;font-size: 18px;&quot;&gt;6&lt;/font&gt;" style="ellipse;whiteSpace=wrap;html=1;aspect=fixed;" vertex="1" parent="1">
          <mxGeometry x="340" y="715" width="50" height="50" as="geometry" />
        </mxCell>
        <mxCell id="gU585ekk-2v_MhJQH-Y2-11" style="edgeStyle=orthogonalEdgeStyle;rounded=0;orthogonalLoop=1;jettySize=auto;html=1;entryX=0;entryY=0.5;entryDx=0;entryDy=0;" edge="1" parent="1" source="CPikV68TQurJL_7mSSEU-13" target="KfDdw2zbIyNiD2uA_Mm_-17">
          <mxGeometry relative="1" as="geometry">
            <Array as="points">
              <mxPoint x="530" y="1000" />
              <mxPoint x="530" y="1410" />
            </Array>
          </mxGeometry>
        </mxCell>
        <mxCell id="CPikV68TQurJL_7mSSEU-13" value="&lt;font style=&quot;font-size: 16px;&quot;&gt;Quentin Tarantino&lt;/font&gt;" style="ellipse;whiteSpace=wrap;html=1;aspect=fixed;" vertex="1" parent="1">
          <mxGeometry x="295" y="930" width="140" height="140" as="geometry" />
        </mxCell>
        <mxCell id="CPikV68TQurJL_7mSSEU-14" value="&lt;font style=&quot;font-size: 18px;&quot;&gt;7&lt;/font&gt;" style="ellipse;whiteSpace=wrap;html=1;aspect=fixed;" vertex="1" parent="1">
          <mxGeometry x="340" y="930" width="50" height="50" as="geometry" />
        </mxCell>
        <mxCell id="gU585ekk-2v_MhJQH-Y2-13" style="edgeStyle=orthogonalEdgeStyle;rounded=0;orthogonalLoop=1;jettySize=auto;html=1;entryX=0.25;entryY=1;entryDx=0;entryDy=0;" edge="1" parent="1" source="CPikV68TQurJL_7mSSEU-15" target="KfDdw2zbIyNiD2uA_Mm_-1">
          <mxGeometry relative="1" as="geometry">
            <Array as="points">
              <mxPoint x="740" y="1200" />
              <mxPoint x="740" y="70" />
              <mxPoint x="805" y="70" />
            </Array>
          </mxGeometry>
        </mxCell>
        <mxCell id="CPikV68TQurJL_7mSSEU-15" value="&lt;font style=&quot;font-size: 16px;&quot;&gt;Robert Zemeckis&lt;/font&gt;" style="ellipse;whiteSpace=wrap;html=1;aspect=fixed;" vertex="1" parent="1">
          <mxGeometry x="295" y="1130" width="140" height="140" as="geometry" />
        </mxCell>
        <mxCell id="CPikV68TQurJL_7mSSEU-16" value="&lt;font style=&quot;font-size: 18px;&quot;&gt;8&lt;/font&gt;" style="ellipse;whiteSpace=wrap;html=1;aspect=fixed;" vertex="1" parent="1">
          <mxGeometry x="340" y="1130" width="50" height="50" as="geometry" />
        </mxCell>
        <mxCell id="KfDdw2zbIyNiD2uA_Mm_-1" value="&lt;font style=&quot;font-size: 16px;&quot;&gt;The Godfather&lt;/font&gt;" style="whiteSpace=wrap;html=1;aspect=fixed;rounded=1;arcSize=25;" vertex="1" parent="1">
          <mxGeometry x="770" y="-100" width="140" height="140" as="geometry" />
        </mxCell>
        <mxCell id="KfDdw2zbIyNiD2uA_Mm_-2" value="&lt;font style=&quot;font-size: 18px;&quot;&gt;2&lt;/font&gt;" style="ellipse;whiteSpace=wrap;html=1;aspect=fixed;" vertex="1" parent="1">
          <mxGeometry x="815" y="-100" width="50" height="50" as="geometry" />
        </mxCell>
        <mxCell id="KfDdw2zbIyNiD2uA_Mm_-3" value="&lt;font style=&quot;font-size: 16px;&quot;&gt;The Shawshank Redemption&lt;/font&gt;" style="whiteSpace=wrap;html=1;aspect=fixed;rounded=1;arcSize=25;" vertex="1" parent="1">
          <mxGeometry x="770" y="-320" width="140" height="140" as="geometry" />
        </mxCell>
        <mxCell id="KfDdw2zbIyNiD2uA_Mm_-4" value="&lt;font style=&quot;font-size: 18px;&quot;&gt;1&lt;/font&gt;" style="ellipse;whiteSpace=wrap;html=1;aspect=fixed;" vertex="1" parent="1">
          <mxGeometry x="815" y="-320" width="50" height="50" as="geometry" />
        </mxCell>
        <mxCell id="KfDdw2zbIyNiD2uA_Mm_-5" value="&lt;font style=&quot;font-size: 16px;&quot;&gt;The Godfather: Part II&lt;/font&gt;" style="whiteSpace=wrap;html=1;aspect=fixed;rounded=1;arcSize=25;" vertex="1" parent="1">
          <mxGeometry x="770" y="100" width="140" height="140" as="geometry" />
        </mxCell>
        <mxCell id="KfDdw2zbIyNiD2uA_Mm_-6" value="&lt;font style=&quot;font-size: 18px;&quot;&gt;3&lt;/font&gt;" style="ellipse;whiteSpace=wrap;html=1;aspect=fixed;" vertex="1" parent="1">
          <mxGeometry x="815" y="100" width="50" height="50" as="geometry" />
        </mxCell>
        <mxCell id="KfDdw2zbIyNiD2uA_Mm_-7" value="&lt;font style=&quot;font-size: 16px;&quot;&gt;12 Angry Men&lt;/font&gt;" style="whiteSpace=wrap;html=1;aspect=fixed;rounded=1;arcSize=25;" vertex="1" parent="1">
          <mxGeometry x="770" y="514" width="140" height="140" as="geometry" />
        </mxCell>
        <mxCell id="KfDdw2zbIyNiD2uA_Mm_-8" value="&lt;font style=&quot;font-size: 18px;&quot;&gt;5&lt;/font&gt;" style="ellipse;whiteSpace=wrap;html=1;aspect=fixed;" vertex="1" parent="1">
          <mxGeometry x="815" y="514" width="50" height="50" as="geometry" />
        </mxCell>
        <mxCell id="KfDdw2zbIyNiD2uA_Mm_-9" value="&lt;font style=&quot;font-size: 16px;&quot;&gt;Schindler&#39;&#39;s List&lt;/font&gt;" style="whiteSpace=wrap;html=1;aspect=fixed;rounded=1;arcSize=25;" vertex="1" parent="1">
          <mxGeometry x="770" y="720" width="140" height="140" as="geometry" />
        </mxCell>
        <mxCell id="KfDdw2zbIyNiD2uA_Mm_-10" value="&lt;font style=&quot;font-size: 18px;&quot;&gt;6&lt;/font&gt;" style="ellipse;whiteSpace=wrap;html=1;aspect=fixed;" vertex="1" parent="1">
          <mxGeometry x="815" y="720" width="50" height="50" as="geometry" />
        </mxCell>
        <mxCell id="KfDdw2zbIyNiD2uA_Mm_-11" value="&lt;font style=&quot;font-size: 12px;&quot;&gt;The Lord of the Rings: The Return of the King&lt;/font&gt;" style="whiteSpace=wrap;html=1;aspect=fixed;rounded=1;arcSize=25;" vertex="1" parent="1">
          <mxGeometry x="770" y="930" width="140" height="140" as="geometry" />
        </mxCell>
        <mxCell id="KfDdw2zbIyNiD2uA_Mm_-12" value="&lt;font style=&quot;font-size: 18px;&quot;&gt;7&lt;/font&gt;" style="ellipse;whiteSpace=wrap;html=1;aspect=fixed;" vertex="1" parent="1">
          <mxGeometry x="815" y="930" width="50" height="50" as="geometry" />
        </mxCell>
        <mxCell id="KfDdw2zbIyNiD2uA_Mm_-13" value="&lt;font style=&quot;font-size: 16px;&quot;&gt;Pulp Fiction&lt;/font&gt;" style="whiteSpace=wrap;html=1;aspect=fixed;rounded=1;arcSize=25;" vertex="1" parent="1">
          <mxGeometry x="770" y="1130" width="140" height="140" as="geometry" />
        </mxCell>
        <mxCell id="KfDdw2zbIyNiD2uA_Mm_-14" value="&lt;font style=&quot;font-size: 18px;&quot;&gt;8&lt;/font&gt;" style="ellipse;whiteSpace=wrap;html=1;aspect=fixed;" vertex="1" parent="1">
          <mxGeometry x="815" y="1130" width="50" height="50" as="geometry" />
        </mxCell>
        <mxCell id="KfDdw2zbIyNiD2uA_Mm_-15" value="&lt;font style=&quot;font-size: 16px;&quot;&gt;The Dark Knight&lt;/font&gt;" style="whiteSpace=wrap;html=1;aspect=fixed;rounded=1;arcSize=25;" vertex="1" parent="1">
          <mxGeometry x="770" y="300" width="140" height="140" as="geometry" />
        </mxCell>
        <mxCell id="KfDdw2zbIyNiD2uA_Mm_-16" value="&lt;font style=&quot;font-size: 18px;&quot;&gt;4&lt;/font&gt;" style="ellipse;whiteSpace=wrap;html=1;aspect=fixed;" vertex="1" parent="1">
          <mxGeometry x="815" y="300" width="50" height="50" as="geometry" />
        </mxCell>
        <mxCell id="KfDdw2zbIyNiD2uA_Mm_-17" value="&lt;font style=&quot;font-size: 10px;&quot;&gt;The Lord of the Rings: The Fellowship of the Ring&lt;/font&gt;" style="whiteSpace=wrap;html=1;aspect=fixed;rounded=1;arcSize=25;" vertex="1" parent="1">
          <mxGeometry x="770" y="1340" width="140" height="140" as="geometry" />
        </mxCell>
        <mxCell id="KfDdw2zbIyNiD2uA_Mm_-18" value="&lt;span style=&quot;font-size: 18px;&quot;&gt;9&lt;/span&gt;" style="ellipse;whiteSpace=wrap;html=1;aspect=fixed;" vertex="1" parent="1">
          <mxGeometry x="815" y="1340" width="50" height="50" as="geometry" />
        </mxCell>
        <mxCell id="KfDdw2zbIyNiD2uA_Mm_-19" value="&lt;font style=&quot;font-size: 16px;&quot;&gt;Forrest Gump&lt;/font&gt;" style="whiteSpace=wrap;html=1;aspect=fixed;rounded=1;arcSize=25;" vertex="1" parent="1">
          <mxGeometry x="770" y="1520" width="140" height="140" as="geometry" />
        </mxCell>
        <mxCell id="KfDdw2zbIyNiD2uA_Mm_-20" value="&lt;span style=&quot;font-size: 18px;&quot;&gt;10&lt;/span&gt;" style="ellipse;whiteSpace=wrap;html=1;aspect=fixed;" vertex="1" parent="1">
          <mxGeometry x="815" y="1520" width="50" height="50" as="geometry" />
        </mxCell>
      </root>
    </mxGraphModel>
  </diagram>
  <diagram id="yn1IhCLnbf9naTxmIDIC" name="FriendsWith">
    <mxGraphModel dx="756" dy="1251" grid="1" gridSize="10" guides="1" tooltips="1" connect="1" arrows="1" fold="1" page="1" pageScale="1" pageWidth="827" pageHeight="1169" math="0" shadow="0">
      <root>
        <mxCell id="0" />
        <mxCell id="1" parent="0" />
        <mxCell id="kuUqp6mNoCXW5KYLuXr7-39" style="edgeStyle=orthogonalEdgeStyle;rounded=0;orthogonalLoop=1;jettySize=auto;html=1;" edge="1" parent="1" source="kuUqp6mNoCXW5KYLuXr7-1" target="kuUqp6mNoCXW5KYLuXr7-5">
          <mxGeometry relative="1" as="geometry">
            <Array as="points">
              <mxPoint x="280" y="500" />
              <mxPoint x="280" y="260" />
            </Array>
          </mxGeometry>
        </mxCell>
        <mxCell id="kuUqp6mNoCXW5KYLuXr7-1" value="&lt;font style=&quot;font-size: 16px;&quot;&gt;Morgan Freeman&lt;/font&gt;" style="ellipse;whiteSpace=wrap;html=1;aspect=fixed;" vertex="1" parent="1">
          <mxGeometry x="115" y="430" width="140" height="140" as="geometry" />
        </mxCell>
        <mxCell id="kuUqp6mNoCXW5KYLuXr7-2" value="&lt;font style=&quot;font-size: 18px;&quot;&gt;2&lt;/font&gt;" style="ellipse;whiteSpace=wrap;html=1;aspect=fixed;" vertex="1" parent="1">
          <mxGeometry x="160" y="430" width="50" height="50" as="geometry" />
        </mxCell>
        <mxCell id="kuUqp6mNoCXW5KYLuXr7-23" value="" style="edgeStyle=orthogonalEdgeStyle;rounded=0;orthogonalLoop=1;jettySize=auto;html=1;" edge="1" parent="1" source="kuUqp6mNoCXW5KYLuXr7-3" target="kuUqp6mNoCXW5KYLuXr7-2">
          <mxGeometry relative="1" as="geometry" />
        </mxCell>
        <mxCell id="kuUqp6mNoCXW5KYLuXr7-3" value="&lt;font style=&quot;font-size: 16px;&quot;&gt;Tim Robbins&lt;/font&gt;" style="ellipse;whiteSpace=wrap;html=1;aspect=fixed;" vertex="1" parent="1">
          <mxGeometry x="115" y="220" width="140" height="140" as="geometry" />
        </mxCell>
        <mxCell id="kuUqp6mNoCXW5KYLuXr7-4" value="&lt;font style=&quot;font-size: 18px;&quot;&gt;1&lt;/font&gt;" style="ellipse;whiteSpace=wrap;html=1;aspect=fixed;" vertex="1" parent="1">
          <mxGeometry x="160" y="220" width="50" height="50" as="geometry" />
        </mxCell>
        <mxCell id="kuUqp6mNoCXW5KYLuXr7-38" value="" style="edgeStyle=orthogonalEdgeStyle;rounded=0;orthogonalLoop=1;jettySize=auto;html=1;" edge="1" parent="1" source="kuUqp6mNoCXW5KYLuXr7-5" target="kuUqp6mNoCXW5KYLuXr7-10">
          <mxGeometry relative="1" as="geometry" />
        </mxCell>
        <mxCell id="kuUqp6mNoCXW5KYLuXr7-5" value="&lt;font style=&quot;font-size: 16px;&quot;&gt;Marlon Brando&lt;/font&gt;" style="ellipse;whiteSpace=wrap;html=1;aspect=fixed;" vertex="1" parent="1">
          <mxGeometry x="430" y="220" width="140" height="140" as="geometry" />
        </mxCell>
        <mxCell id="kuUqp6mNoCXW5KYLuXr7-6" value="&lt;font style=&quot;font-size: 18px;&quot;&gt;3&lt;/font&gt;" style="ellipse;whiteSpace=wrap;html=1;aspect=fixed;" vertex="1" parent="1">
          <mxGeometry x="475" y="220" width="50" height="50" as="geometry" />
        </mxCell>
        <mxCell id="kuUqp6mNoCXW5KYLuXr7-36" style="edgeStyle=orthogonalEdgeStyle;rounded=0;orthogonalLoop=1;jettySize=auto;html=1;" edge="1" parent="1" source="kuUqp6mNoCXW5KYLuXr7-7" target="kuUqp6mNoCXW5KYLuXr7-5">
          <mxGeometry relative="1" as="geometry">
            <Array as="points">
              <mxPoint x="330" y="670" />
              <mxPoint x="330" y="290" />
            </Array>
          </mxGeometry>
        </mxCell>
        <mxCell id="kuUqp6mNoCXW5KYLuXr7-37" value="" style="edgeStyle=orthogonalEdgeStyle;rounded=0;orthogonalLoop=1;jettySize=auto;html=1;" edge="1" parent="1" source="kuUqp6mNoCXW5KYLuXr7-7" target="kuUqp6mNoCXW5KYLuXr7-1">
          <mxGeometry relative="1" as="geometry" />
        </mxCell>
        <mxCell id="kuUqp6mNoCXW5KYLuXr7-7" value="&lt;font style=&quot;font-size: 16px;&quot;&gt;Al Pacino&lt;/font&gt;" style="ellipse;whiteSpace=wrap;html=1;aspect=fixed;" vertex="1" parent="1">
          <mxGeometry x="115" y="630" width="140" height="140" as="geometry" />
        </mxCell>
        <mxCell id="kuUqp6mNoCXW5KYLuXr7-8" value="&lt;font style=&quot;font-size: 18px;&quot;&gt;4&lt;/font&gt;" style="ellipse;whiteSpace=wrap;html=1;aspect=fixed;" vertex="1" parent="1">
          <mxGeometry x="160" y="630" width="50" height="50" as="geometry" />
        </mxCell>
        <mxCell id="kuUqp6mNoCXW5KYLuXr7-31" value="" style="edgeStyle=orthogonalEdgeStyle;rounded=0;orthogonalLoop=1;jettySize=auto;html=1;" edge="1" parent="1" source="kuUqp6mNoCXW5KYLuXr7-9" target="kuUqp6mNoCXW5KYLuXr7-14">
          <mxGeometry relative="1" as="geometry" />
        </mxCell>
        <mxCell id="kuUqp6mNoCXW5KYLuXr7-9" value="&lt;font style=&quot;font-size: 16px;&quot;&gt;Robert De Niro&lt;/font&gt;" style="ellipse;whiteSpace=wrap;html=1;aspect=fixed;" vertex="1" parent="1">
          <mxGeometry x="430" y="420" width="140" height="140" as="geometry" />
        </mxCell>
        <mxCell id="kuUqp6mNoCXW5KYLuXr7-10" value="&lt;font style=&quot;font-size: 18px;&quot;&gt;5&lt;/font&gt;" style="ellipse;whiteSpace=wrap;html=1;aspect=fixed;" vertex="1" parent="1">
          <mxGeometry x="475" y="420" width="50" height="50" as="geometry" />
        </mxCell>
        <mxCell id="kuUqp6mNoCXW5KYLuXr7-25" style="edgeStyle=orthogonalEdgeStyle;rounded=0;orthogonalLoop=1;jettySize=auto;html=1;" edge="1" parent="1" source="kuUqp6mNoCXW5KYLuXr7-11" target="kuUqp6mNoCXW5KYLuXr7-17">
          <mxGeometry relative="1" as="geometry" />
        </mxCell>
        <mxCell id="kuUqp6mNoCXW5KYLuXr7-35" value="" style="edgeStyle=orthogonalEdgeStyle;rounded=0;orthogonalLoop=1;jettySize=auto;html=1;" edge="1" parent="1" source="kuUqp6mNoCXW5KYLuXr7-11" target="kuUqp6mNoCXW5KYLuXr7-7">
          <mxGeometry relative="1" as="geometry" />
        </mxCell>
        <mxCell id="kuUqp6mNoCXW5KYLuXr7-11" value="&lt;font style=&quot;font-size: 16px;&quot;&gt;Christian Bale&lt;/font&gt;" style="ellipse;whiteSpace=wrap;html=1;aspect=fixed;" vertex="1" parent="1">
          <mxGeometry x="115" y="820" width="140" height="140" as="geometry" />
        </mxCell>
        <mxCell id="kuUqp6mNoCXW5KYLuXr7-12" value="&lt;font style=&quot;font-size: 18px;&quot;&gt;6&lt;/font&gt;" style="ellipse;whiteSpace=wrap;html=1;aspect=fixed;" vertex="1" parent="1">
          <mxGeometry x="160" y="820" width="50" height="50" as="geometry" />
        </mxCell>
        <mxCell id="kuUqp6mNoCXW5KYLuXr7-34" style="edgeStyle=orthogonalEdgeStyle;rounded=0;orthogonalLoop=1;jettySize=auto;html=1;" edge="1" parent="1" source="kuUqp6mNoCXW5KYLuXr7-13">
          <mxGeometry relative="1" as="geometry">
            <mxPoint x="260" y="700" as="targetPoint" />
          </mxGeometry>
        </mxCell>
        <mxCell id="kuUqp6mNoCXW5KYLuXr7-13" value="&lt;font style=&quot;font-size: 16px;&quot;&gt;Heath Ledger&lt;/font&gt;" style="ellipse;whiteSpace=wrap;html=1;aspect=fixed;" vertex="1" parent="1">
          <mxGeometry x="430" y="630" width="140" height="140" as="geometry" />
        </mxCell>
        <mxCell id="kuUqp6mNoCXW5KYLuXr7-14" value="&lt;font style=&quot;font-size: 18px;&quot;&gt;7&lt;/font&gt;" style="ellipse;whiteSpace=wrap;html=1;aspect=fixed;" vertex="1" parent="1">
          <mxGeometry x="475" y="630" width="50" height="50" as="geometry" />
        </mxCell>
        <mxCell id="kuUqp6mNoCXW5KYLuXr7-24" style="edgeStyle=orthogonalEdgeStyle;rounded=0;orthogonalLoop=1;jettySize=auto;html=1;entryX=0;entryY=0.5;entryDx=0;entryDy=0;" edge="1" parent="1" source="kuUqp6mNoCXW5KYLuXr7-15" target="kuUqp6mNoCXW5KYLuXr7-19">
          <mxGeometry relative="1" as="geometry" />
        </mxCell>
        <mxCell id="kuUqp6mNoCXW5KYLuXr7-29" style="edgeStyle=orthogonalEdgeStyle;rounded=0;orthogonalLoop=1;jettySize=auto;html=1;" edge="1" parent="1" source="kuUqp6mNoCXW5KYLuXr7-15" target="kuUqp6mNoCXW5KYLuXr7-13">
          <mxGeometry relative="1" as="geometry">
            <Array as="points">
              <mxPoint x="185" y="1300" />
              <mxPoint x="630" y="1300" />
              <mxPoint x="630" y="690" />
            </Array>
          </mxGeometry>
        </mxCell>
        <mxCell id="kuUqp6mNoCXW5KYLuXr7-15" value="&lt;font style=&quot;font-size: 16px;&quot;&gt;Jack Nicholson&lt;/font&gt;" style="ellipse;whiteSpace=wrap;html=1;aspect=fixed;" vertex="1" parent="1">
          <mxGeometry x="115" y="1010" width="140" height="140" as="geometry" />
        </mxCell>
        <mxCell id="kuUqp6mNoCXW5KYLuXr7-16" value="&lt;font style=&quot;font-size: 18px;&quot;&gt;8&lt;/font&gt;" style="ellipse;whiteSpace=wrap;html=1;aspect=fixed;" vertex="1" parent="1">
          <mxGeometry x="160" y="1010" width="50" height="50" as="geometry" />
        </mxCell>
        <mxCell id="kuUqp6mNoCXW5KYLuXr7-33" value="" style="edgeStyle=orthogonalEdgeStyle;rounded=0;orthogonalLoop=1;jettySize=auto;html=1;entryX=0;entryY=0.5;entryDx=0;entryDy=0;" edge="1" parent="1" source="kuUqp6mNoCXW5KYLuXr7-17" target="kuUqp6mNoCXW5KYLuXr7-9">
          <mxGeometry relative="1" as="geometry">
            <Array as="points">
              <mxPoint x="500" y="790" />
              <mxPoint x="410" y="790" />
              <mxPoint x="410" y="490" />
            </Array>
          </mxGeometry>
        </mxCell>
        <mxCell id="kuUqp6mNoCXW5KYLuXr7-17" value="&lt;font style=&quot;font-size: 16px;&quot;&gt;Henry Fonda&lt;/font&gt;" style="ellipse;whiteSpace=wrap;html=1;aspect=fixed;" vertex="1" parent="1">
          <mxGeometry x="430" y="820" width="140" height="140" as="geometry" />
        </mxCell>
        <mxCell id="kuUqp6mNoCXW5KYLuXr7-18" value="&lt;font style=&quot;font-size: 18px;&quot;&gt;9&lt;/font&gt;" style="ellipse;whiteSpace=wrap;html=1;aspect=fixed;" vertex="1" parent="1">
          <mxGeometry x="475" y="820" width="50" height="50" as="geometry" />
        </mxCell>
        <mxCell id="kuUqp6mNoCXW5KYLuXr7-32" style="edgeStyle=orthogonalEdgeStyle;rounded=0;orthogonalLoop=1;jettySize=auto;html=1;" edge="1" parent="1" source="kuUqp6mNoCXW5KYLuXr7-19" target="kuUqp6mNoCXW5KYLuXr7-11">
          <mxGeometry relative="1" as="geometry">
            <Array as="points">
              <mxPoint x="500" y="990" />
              <mxPoint x="185" y="990" />
            </Array>
          </mxGeometry>
        </mxCell>
        <mxCell id="kuUqp6mNoCXW5KYLuXr7-19" value="&lt;font style=&quot;font-size: 16px;&quot;&gt;Liam Neeson&lt;/font&gt;" style="ellipse;whiteSpace=wrap;html=1;aspect=fixed;" vertex="1" parent="1">
          <mxGeometry x="430" y="1010" width="140" height="140" as="geometry" />
        </mxCell>
        <mxCell id="kuUqp6mNoCXW5KYLuXr7-20" value="&lt;font style=&quot;font-size: 18px;&quot;&gt;10&lt;/font&gt;" style="ellipse;whiteSpace=wrap;html=1;aspect=fixed;" vertex="1" parent="1">
          <mxGeometry x="475" y="1010" width="50" height="50" as="geometry" />
        </mxCell>
      </root>
    </mxGraphModel>
  </diagram>
  <diagram id="PPDxp8UzgxKc9bu7UB8K" name="Directed ">
    <mxGraphModel dx="1133" dy="3046" grid="1" gridSize="10" guides="1" tooltips="1" connect="1" arrows="1" fold="1" page="1" pageScale="1" pageWidth="827" pageHeight="1169" math="0" shadow="0">
      <root>
        <mxCell id="0" />
        <mxCell id="1" parent="0" />
        <mxCell id="DyNOmdJHnWO-5bzyMdV0-4" style="edgeStyle=orthogonalEdgeStyle;rounded=0;orthogonalLoop=1;jettySize=auto;html=1;entryX=0;entryY=0.5;entryDx=0;entryDy=0;" edge="1" parent="1" source="eD-IA1KznwpK48c1Inid-1" target="vcTTtQUX74Xg6x9gH2Gh-2">
          <mxGeometry relative="1" as="geometry" />
        </mxCell>
        <mxCell id="DyNOmdJHnWO-5bzyMdV0-5" style="edgeStyle=orthogonalEdgeStyle;rounded=0;orthogonalLoop=1;jettySize=auto;html=1;entryX=0;entryY=0.5;entryDx=0;entryDy=0;" edge="1" parent="1" source="eD-IA1KznwpK48c1Inid-1" target="vcTTtQUX74Xg6x9gH2Gh-6">
          <mxGeometry relative="1" as="geometry" />
        </mxCell>
        <mxCell id="eD-IA1KznwpK48c1Inid-1" value="&lt;font style=&quot;font-size: 16px;&quot;&gt;Francis Ford Coppola&#39;&lt;/font&gt;" style="ellipse;whiteSpace=wrap;html=1;aspect=fixed;" vertex="1" parent="1">
          <mxGeometry x="295" width="140" height="140" as="geometry" />
        </mxCell>
        <mxCell id="eD-IA1KznwpK48c1Inid-2" value="&lt;font style=&quot;font-size: 18px;&quot;&gt;2&lt;/font&gt;" style="ellipse;whiteSpace=wrap;html=1;aspect=fixed;" vertex="1" parent="1">
          <mxGeometry x="340" width="50" height="50" as="geometry" />
        </mxCell>
        <mxCell id="DyNOmdJHnWO-5bzyMdV0-3" style="edgeStyle=orthogonalEdgeStyle;rounded=0;orthogonalLoop=1;jettySize=auto;html=1;entryX=0;entryY=0.5;entryDx=0;entryDy=0;" edge="1" parent="1" source="eD-IA1KznwpK48c1Inid-3" target="vcTTtQUX74Xg6x9gH2Gh-4">
          <mxGeometry relative="1" as="geometry" />
        </mxCell>
        <mxCell id="eD-IA1KznwpK48c1Inid-3" value="&lt;font style=&quot;font-size: 16px;&quot;&gt;Frank Darabont&lt;/font&gt;" style="ellipse;whiteSpace=wrap;html=1;aspect=fixed;" vertex="1" parent="1">
          <mxGeometry x="295" y="-320" width="140" height="140" as="geometry" />
        </mxCell>
        <mxCell id="eD-IA1KznwpK48c1Inid-4" value="&lt;font style=&quot;font-size: 18px;&quot;&gt;1&lt;/font&gt;" style="ellipse;whiteSpace=wrap;html=1;aspect=fixed;" vertex="1" parent="1">
          <mxGeometry x="340" y="-320" width="50" height="50" as="geometry" />
        </mxCell>
        <mxCell id="DyNOmdJHnWO-5bzyMdV0-7" style="edgeStyle=orthogonalEdgeStyle;rounded=0;orthogonalLoop=1;jettySize=auto;html=1;entryX=0;entryY=0.5;entryDx=0;entryDy=0;" edge="1" parent="1" source="eD-IA1KznwpK48c1Inid-5" target="vcTTtQUX74Xg6x9gH2Gh-16">
          <mxGeometry relative="1" as="geometry" />
        </mxCell>
        <mxCell id="eD-IA1KznwpK48c1Inid-5" value="&lt;font style=&quot;font-size: 16px;&quot;&gt;Christopher Nolan&lt;/font&gt;" style="ellipse;whiteSpace=wrap;html=1;aspect=fixed;" vertex="1" parent="1">
          <mxGeometry x="295" y="300" width="140" height="140" as="geometry" />
        </mxCell>
        <mxCell id="eD-IA1KznwpK48c1Inid-6" value="&lt;font style=&quot;font-size: 18px;&quot;&gt;3&lt;/font&gt;" style="ellipse;whiteSpace=wrap;html=1;aspect=fixed;" vertex="1" parent="1">
          <mxGeometry x="340" y="300" width="50" height="50" as="geometry" />
        </mxCell>
        <mxCell id="DyNOmdJHnWO-5bzyMdV0-8" style="edgeStyle=orthogonalEdgeStyle;rounded=0;orthogonalLoop=1;jettySize=auto;html=1;entryX=0;entryY=0.5;entryDx=0;entryDy=0;" edge="1" parent="1" source="eD-IA1KznwpK48c1Inid-7" target="vcTTtQUX74Xg6x9gH2Gh-8">
          <mxGeometry relative="1" as="geometry" />
        </mxCell>
        <mxCell id="eD-IA1KznwpK48c1Inid-7" value="&lt;font style=&quot;font-size: 16px;&quot;&gt;Sidney Lumet&lt;/font&gt;" style="ellipse;whiteSpace=wrap;html=1;aspect=fixed;" vertex="1" parent="1">
          <mxGeometry x="295" y="514" width="140" height="140" as="geometry" />
        </mxCell>
        <mxCell id="eD-IA1KznwpK48c1Inid-8" value="&lt;font style=&quot;font-size: 18px;&quot;&gt;4&lt;/font&gt;" style="ellipse;whiteSpace=wrap;html=1;aspect=fixed;" vertex="1" parent="1">
          <mxGeometry x="340" y="514" width="50" height="50" as="geometry" />
        </mxCell>
        <mxCell id="DyNOmdJHnWO-5bzyMdV0-9" style="edgeStyle=orthogonalEdgeStyle;rounded=0;orthogonalLoop=1;jettySize=auto;html=1;entryX=0;entryY=0.5;entryDx=0;entryDy=0;" edge="1" parent="1" source="eD-IA1KznwpK48c1Inid-9" target="vcTTtQUX74Xg6x9gH2Gh-10">
          <mxGeometry relative="1" as="geometry" />
        </mxCell>
        <mxCell id="eD-IA1KznwpK48c1Inid-9" value="&lt;font style=&quot;font-size: 16px;&quot;&gt;Steven Spielberg&lt;/font&gt;" style="ellipse;whiteSpace=wrap;html=1;aspect=fixed;" vertex="1" parent="1">
          <mxGeometry x="295" y="720" width="140" height="140" as="geometry" />
        </mxCell>
        <mxCell id="eD-IA1KznwpK48c1Inid-10" value="&lt;font style=&quot;font-size: 18px;&quot;&gt;5&lt;/font&gt;" style="ellipse;whiteSpace=wrap;html=1;aspect=fixed;" vertex="1" parent="1">
          <mxGeometry x="340" y="720" width="50" height="50" as="geometry" />
        </mxCell>
        <mxCell id="DyNOmdJHnWO-5bzyMdV0-12" style="edgeStyle=orthogonalEdgeStyle;rounded=0;orthogonalLoop=1;jettySize=auto;html=1;entryX=0;entryY=0.5;entryDx=0;entryDy=0;" edge="1" parent="1" source="eD-IA1KznwpK48c1Inid-11" target="vcTTtQUX74Xg6x9gH2Gh-12">
          <mxGeometry relative="1" as="geometry" />
        </mxCell>
        <mxCell id="DyNOmdJHnWO-5bzyMdV0-13" style="edgeStyle=orthogonalEdgeStyle;rounded=0;orthogonalLoop=1;jettySize=auto;html=1;entryX=0;entryY=0.5;entryDx=0;entryDy=0;" edge="1" parent="1" source="eD-IA1KznwpK48c1Inid-11" target="vcTTtQUX74Xg6x9gH2Gh-18">
          <mxGeometry relative="1" as="geometry" />
        </mxCell>
        <mxCell id="eD-IA1KznwpK48c1Inid-11" value="&lt;font style=&quot;font-size: 16px;&quot;&gt;Peter Jackson&lt;/font&gt;" style="ellipse;whiteSpace=wrap;html=1;aspect=fixed;" vertex="1" parent="1">
          <mxGeometry x="295" y="1029" width="140" height="140" as="geometry" />
        </mxCell>
        <mxCell id="eD-IA1KznwpK48c1Inid-12" value="&lt;font style=&quot;font-size: 18px;&quot;&gt;6&lt;/font&gt;" style="ellipse;whiteSpace=wrap;html=1;aspect=fixed;" vertex="1" parent="1">
          <mxGeometry x="340" y="1029" width="50" height="50" as="geometry" />
        </mxCell>
        <mxCell id="DyNOmdJHnWO-5bzyMdV0-10" style="edgeStyle=orthogonalEdgeStyle;rounded=0;orthogonalLoop=1;jettySize=auto;html=1;entryX=0;entryY=0.5;entryDx=0;entryDy=0;" edge="1" parent="1" source="eD-IA1KznwpK48c1Inid-13" target="vcTTtQUX74Xg6x9gH2Gh-14">
          <mxGeometry relative="1" as="geometry" />
        </mxCell>
        <mxCell id="eD-IA1KznwpK48c1Inid-13" value="&lt;font style=&quot;font-size: 16px;&quot;&gt;Quentin Tarantino&lt;/font&gt;" style="ellipse;whiteSpace=wrap;html=1;aspect=fixed;" vertex="1" parent="1">
          <mxGeometry x="295" y="1340" width="140" height="140" as="geometry" />
        </mxCell>
        <mxCell id="eD-IA1KznwpK48c1Inid-14" value="&lt;font style=&quot;font-size: 18px;&quot;&gt;7&lt;/font&gt;" style="ellipse;whiteSpace=wrap;html=1;aspect=fixed;" vertex="1" parent="1">
          <mxGeometry x="340" y="1340" width="50" height="50" as="geometry" />
        </mxCell>
        <mxCell id="DyNOmdJHnWO-5bzyMdV0-11" style="edgeStyle=orthogonalEdgeStyle;rounded=0;orthogonalLoop=1;jettySize=auto;html=1;entryX=0;entryY=0.5;entryDx=0;entryDy=0;" edge="1" parent="1" source="eD-IA1KznwpK48c1Inid-15" target="vcTTtQUX74Xg6x9gH2Gh-20">
          <mxGeometry relative="1" as="geometry" />
        </mxCell>
        <mxCell id="eD-IA1KznwpK48c1Inid-15" value="&lt;font style=&quot;font-size: 16px;&quot;&gt;Robert Zemeckis&lt;/font&gt;" style="ellipse;whiteSpace=wrap;html=1;aspect=fixed;" vertex="1" parent="1">
          <mxGeometry x="295" y="1520" width="140" height="140" as="geometry" />
        </mxCell>
        <mxCell id="eD-IA1KznwpK48c1Inid-16" value="&lt;font style=&quot;font-size: 18px;&quot;&gt;8&lt;/font&gt;" style="ellipse;whiteSpace=wrap;html=1;aspect=fixed;" vertex="1" parent="1">
          <mxGeometry x="340" y="1520" width="50" height="50" as="geometry" />
        </mxCell>
        <mxCell id="vcTTtQUX74Xg6x9gH2Gh-2" value="&lt;font style=&quot;font-size: 16px;&quot;&gt;The Godfather&lt;/font&gt;" style="whiteSpace=wrap;html=1;aspect=fixed;rounded=1;arcSize=25;" vertex="1" parent="1">
          <mxGeometry x="920" y="-100" width="140" height="140" as="geometry" />
        </mxCell>
        <mxCell id="vcTTtQUX74Xg6x9gH2Gh-3" value="&lt;font style=&quot;font-size: 18px;&quot;&gt;2&lt;/font&gt;" style="ellipse;whiteSpace=wrap;html=1;aspect=fixed;" vertex="1" parent="1">
          <mxGeometry x="965" y="-100" width="50" height="50" as="geometry" />
        </mxCell>
        <mxCell id="vcTTtQUX74Xg6x9gH2Gh-4" value="&lt;font style=&quot;font-size: 16px;&quot;&gt;The Shawshank Redemption&lt;/font&gt;" style="whiteSpace=wrap;html=1;aspect=fixed;rounded=1;arcSize=25;" vertex="1" parent="1">
          <mxGeometry x="920" y="-320" width="140" height="140" as="geometry" />
        </mxCell>
        <mxCell id="vcTTtQUX74Xg6x9gH2Gh-5" value="&lt;font style=&quot;font-size: 18px;&quot;&gt;1&lt;/font&gt;" style="ellipse;whiteSpace=wrap;html=1;aspect=fixed;" vertex="1" parent="1">
          <mxGeometry x="965" y="-320" width="50" height="50" as="geometry" />
        </mxCell>
        <mxCell id="vcTTtQUX74Xg6x9gH2Gh-6" value="&lt;font style=&quot;font-size: 16px;&quot;&gt;The Godfather: Part II&lt;/font&gt;" style="whiteSpace=wrap;html=1;aspect=fixed;rounded=1;arcSize=25;" vertex="1" parent="1">
          <mxGeometry x="920" y="100" width="140" height="140" as="geometry" />
        </mxCell>
        <mxCell id="vcTTtQUX74Xg6x9gH2Gh-7" value="&lt;font style=&quot;font-size: 18px;&quot;&gt;3&lt;/font&gt;" style="ellipse;whiteSpace=wrap;html=1;aspect=fixed;" vertex="1" parent="1">
          <mxGeometry x="965" y="100" width="50" height="50" as="geometry" />
        </mxCell>
        <mxCell id="vcTTtQUX74Xg6x9gH2Gh-8" value="&lt;font style=&quot;font-size: 16px;&quot;&gt;12 Angry Men&lt;/font&gt;" style="whiteSpace=wrap;html=1;aspect=fixed;rounded=1;arcSize=25;" vertex="1" parent="1">
          <mxGeometry x="920" y="514" width="140" height="140" as="geometry" />
        </mxCell>
        <mxCell id="vcTTtQUX74Xg6x9gH2Gh-9" value="&lt;font style=&quot;font-size: 18px;&quot;&gt;5&lt;/font&gt;" style="ellipse;whiteSpace=wrap;html=1;aspect=fixed;" vertex="1" parent="1">
          <mxGeometry x="965" y="514" width="50" height="50" as="geometry" />
        </mxCell>
        <mxCell id="vcTTtQUX74Xg6x9gH2Gh-10" value="&lt;font style=&quot;font-size: 16px;&quot;&gt;Schindler&#39;&#39;s List&lt;/font&gt;" style="whiteSpace=wrap;html=1;aspect=fixed;rounded=1;arcSize=25;" vertex="1" parent="1">
          <mxGeometry x="920" y="720" width="140" height="140" as="geometry" />
        </mxCell>
        <mxCell id="vcTTtQUX74Xg6x9gH2Gh-11" value="&lt;font style=&quot;font-size: 18px;&quot;&gt;6&lt;/font&gt;" style="ellipse;whiteSpace=wrap;html=1;aspect=fixed;" vertex="1" parent="1">
          <mxGeometry x="965" y="720" width="50" height="50" as="geometry" />
        </mxCell>
        <mxCell id="vcTTtQUX74Xg6x9gH2Gh-12" value="&lt;font style=&quot;font-size: 12px;&quot;&gt;The Lord of the Rings: The Return of the King&lt;/font&gt;" style="whiteSpace=wrap;html=1;aspect=fixed;rounded=1;arcSize=25;" vertex="1" parent="1">
          <mxGeometry x="920" y="930" width="140" height="140" as="geometry" />
        </mxCell>
        <mxCell id="vcTTtQUX74Xg6x9gH2Gh-13" value="&lt;font style=&quot;font-size: 18px;&quot;&gt;7&lt;/font&gt;" style="ellipse;whiteSpace=wrap;html=1;aspect=fixed;" vertex="1" parent="1">
          <mxGeometry x="965" y="930" width="50" height="50" as="geometry" />
        </mxCell>
        <mxCell id="vcTTtQUX74Xg6x9gH2Gh-14" value="&lt;font style=&quot;font-size: 16px;&quot;&gt;Pulp Fiction&lt;/font&gt;" style="whiteSpace=wrap;html=1;aspect=fixed;rounded=1;arcSize=25;" vertex="1" parent="1">
          <mxGeometry x="920" y="1340" width="140" height="140" as="geometry" />
        </mxCell>
        <mxCell id="vcTTtQUX74Xg6x9gH2Gh-15" value="&lt;font style=&quot;font-size: 18px;&quot;&gt;8&lt;/font&gt;" style="ellipse;whiteSpace=wrap;html=1;aspect=fixed;" vertex="1" parent="1">
          <mxGeometry x="965" y="1340" width="50" height="50" as="geometry" />
        </mxCell>
        <mxCell id="vcTTtQUX74Xg6x9gH2Gh-16" value="&lt;font style=&quot;font-size: 16px;&quot;&gt;The Dark Knight&lt;/font&gt;" style="whiteSpace=wrap;html=1;aspect=fixed;rounded=1;arcSize=25;" vertex="1" parent="1">
          <mxGeometry x="920" y="300" width="140" height="140" as="geometry" />
        </mxCell>
        <mxCell id="vcTTtQUX74Xg6x9gH2Gh-17" value="&lt;font style=&quot;font-size: 18px;&quot;&gt;4&lt;/font&gt;" style="ellipse;whiteSpace=wrap;html=1;aspect=fixed;" vertex="1" parent="1">
          <mxGeometry x="965" y="300" width="50" height="50" as="geometry" />
        </mxCell>
        <mxCell id="vcTTtQUX74Xg6x9gH2Gh-18" value="&lt;font style=&quot;font-size: 10px;&quot;&gt;The Lord of the Rings: The Fellowship of the Ring&lt;/font&gt;" style="whiteSpace=wrap;html=1;aspect=fixed;rounded=1;arcSize=25;" vertex="1" parent="1">
          <mxGeometry x="920" y="1150" width="140" height="140" as="geometry" />
        </mxCell>
        <mxCell id="vcTTtQUX74Xg6x9gH2Gh-19" value="&lt;span style=&quot;font-size: 18px;&quot;&gt;9&lt;/span&gt;" style="ellipse;whiteSpace=wrap;html=1;aspect=fixed;" vertex="1" parent="1">
          <mxGeometry x="965" y="1150" width="50" height="50" as="geometry" />
        </mxCell>
        <mxCell id="vcTTtQUX74Xg6x9gH2Gh-20" value="&lt;font style=&quot;font-size: 16px;&quot;&gt;Forrest Gump&lt;/font&gt;" style="whiteSpace=wrap;html=1;aspect=fixed;rounded=1;arcSize=25;" vertex="1" parent="1">
          <mxGeometry x="920" y="1520" width="140" height="140" as="geometry" />
        </mxCell>
        <mxCell id="vcTTtQUX74Xg6x9gH2Gh-21" value="&lt;span style=&quot;font-size: 18px;&quot;&gt;10&lt;/span&gt;" style="ellipse;whiteSpace=wrap;html=1;aspect=fixed;" vertex="1" parent="1">
          <mxGeometry x="965" y="1520" width="50" height="50" as="geometry" />
        </mxCell>
      </root>
    </mxGraphModel>
  </diagram>
  <diagram id="NBeDzZUTrZFBSsXTxBHR" name="ActedIn">
    <mxGraphModel dx="1133" dy="3046" grid="1" gridSize="10" guides="1" tooltips="1" connect="1" arrows="1" fold="1" page="1" pageScale="1" pageWidth="827" pageHeight="1169" math="0" shadow="0">
      <root>
        <mxCell id="0" />
        <mxCell id="1" parent="0" />
        <mxCell id="-VFY3AdVCU0dmX2qWyix-1" value="&lt;font style=&quot;font-size: 16px;&quot;&gt;The Godfather&lt;/font&gt;" style="whiteSpace=wrap;html=1;aspect=fixed;rounded=1;arcSize=25;" vertex="1" parent="1">
          <mxGeometry x="1440" y="60" width="140" height="140" as="geometry" />
        </mxCell>
        <mxCell id="-VFY3AdVCU0dmX2qWyix-2" value="&lt;font style=&quot;font-size: 18px;&quot;&gt;2&lt;/font&gt;" style="ellipse;whiteSpace=wrap;html=1;aspect=fixed;" vertex="1" parent="1">
          <mxGeometry x="1485" y="60" width="50" height="50" as="geometry" />
        </mxCell>
        <mxCell id="-VFY3AdVCU0dmX2qWyix-3" value="&lt;font style=&quot;font-size: 16px;&quot;&gt;The Shawshank Redemption&lt;/font&gt;" style="whiteSpace=wrap;html=1;aspect=fixed;rounded=1;arcSize=25;" vertex="1" parent="1">
          <mxGeometry x="1440" y="-360" width="140" height="140" as="geometry" />
        </mxCell>
        <mxCell id="-VFY3AdVCU0dmX2qWyix-4" value="&lt;font style=&quot;font-size: 18px;&quot;&gt;1&lt;/font&gt;" style="ellipse;whiteSpace=wrap;html=1;aspect=fixed;" vertex="1" parent="1">
          <mxGeometry x="1485" y="-360" width="50" height="50" as="geometry" />
        </mxCell>
        <mxCell id="-VFY3AdVCU0dmX2qWyix-5" value="&lt;font style=&quot;font-size: 16px;&quot;&gt;The Godfather: Part II&lt;/font&gt;" style="whiteSpace=wrap;html=1;aspect=fixed;rounded=1;arcSize=25;" vertex="1" parent="1">
          <mxGeometry x="1440" y="300" width="140" height="140" as="geometry" />
        </mxCell>
        <mxCell id="-VFY3AdVCU0dmX2qWyix-6" value="&lt;font style=&quot;font-size: 18px;&quot;&gt;3&lt;/font&gt;" style="ellipse;whiteSpace=wrap;html=1;aspect=fixed;" vertex="1" parent="1">
          <mxGeometry x="1485" y="300" width="50" height="50" as="geometry" />
        </mxCell>
        <mxCell id="-VFY3AdVCU0dmX2qWyix-7" value="&lt;font style=&quot;font-size: 16px;&quot;&gt;12 Angry Men&lt;/font&gt;" style="whiteSpace=wrap;html=1;aspect=fixed;rounded=1;arcSize=25;" vertex="1" parent="1">
          <mxGeometry x="1440" y="880" width="140" height="140" as="geometry" />
        </mxCell>
        <mxCell id="-VFY3AdVCU0dmX2qWyix-8" value="&lt;font style=&quot;font-size: 18px;&quot;&gt;5&lt;/font&gt;" style="ellipse;whiteSpace=wrap;html=1;aspect=fixed;" vertex="1" parent="1">
          <mxGeometry x="1485" y="880" width="50" height="50" as="geometry" />
        </mxCell>
        <mxCell id="-VFY3AdVCU0dmX2qWyix-9" value="&lt;font style=&quot;font-size: 16px;&quot;&gt;Schindler&#39;&#39;s List&lt;/font&gt;" style="whiteSpace=wrap;html=1;aspect=fixed;rounded=1;arcSize=25;" vertex="1" parent="1">
          <mxGeometry x="1440" y="1086" width="140" height="140" as="geometry" />
        </mxCell>
        <mxCell id="-VFY3AdVCU0dmX2qWyix-10" value="&lt;font style=&quot;font-size: 18px;&quot;&gt;6&lt;/font&gt;" style="ellipse;whiteSpace=wrap;html=1;aspect=fixed;" vertex="1" parent="1">
          <mxGeometry x="1485" y="1086" width="50" height="50" as="geometry" />
        </mxCell>
        <mxCell id="-VFY3AdVCU0dmX2qWyix-11" value="&lt;font style=&quot;font-size: 12px;&quot;&gt;The Lord of the Rings: The Return of the King&lt;/font&gt;" style="whiteSpace=wrap;html=1;aspect=fixed;rounded=1;arcSize=25;" vertex="1" parent="1">
          <mxGeometry x="580" y="580" width="140" height="140" as="geometry" />
        </mxCell>
        <mxCell id="-VFY3AdVCU0dmX2qWyix-12" value="&lt;font style=&quot;font-size: 18px;&quot;&gt;7&lt;/font&gt;" style="ellipse;whiteSpace=wrap;html=1;aspect=fixed;" vertex="1" parent="1">
          <mxGeometry x="625" y="580" width="50" height="50" as="geometry" />
        </mxCell>
        <mxCell id="-VFY3AdVCU0dmX2qWyix-13" value="&lt;font style=&quot;font-size: 16px;&quot;&gt;Pulp Fiction&lt;/font&gt;" style="whiteSpace=wrap;html=1;aspect=fixed;rounded=1;arcSize=25;" vertex="1" parent="1">
          <mxGeometry x="1310" y="1710" width="140" height="140" as="geometry" />
        </mxCell>
        <mxCell id="-VFY3AdVCU0dmX2qWyix-14" value="&lt;font style=&quot;font-size: 18px;&quot;&gt;8&lt;/font&gt;" style="ellipse;whiteSpace=wrap;html=1;aspect=fixed;" vertex="1" parent="1">
          <mxGeometry x="1355" y="1710" width="50" height="50" as="geometry" />
        </mxCell>
        <mxCell id="-VFY3AdVCU0dmX2qWyix-15" value="&lt;font style=&quot;font-size: 16px;&quot;&gt;The Dark Knight&lt;/font&gt;" style="whiteSpace=wrap;html=1;aspect=fixed;rounded=1;arcSize=25;" vertex="1" parent="1">
          <mxGeometry x="1440" y="580" width="140" height="140" as="geometry" />
        </mxCell>
        <mxCell id="-VFY3AdVCU0dmX2qWyix-16" value="&lt;font style=&quot;font-size: 18px;&quot;&gt;4&lt;/font&gt;" style="ellipse;whiteSpace=wrap;html=1;aspect=fixed;" vertex="1" parent="1">
          <mxGeometry x="1485" y="580" width="50" height="50" as="geometry" />
        </mxCell>
        <mxCell id="-VFY3AdVCU0dmX2qWyix-17" value="&lt;font style=&quot;font-size: 10px;&quot;&gt;The Lord of the Rings: The Fellowship of the Ring&lt;/font&gt;" style="whiteSpace=wrap;html=1;aspect=fixed;rounded=1;arcSize=25;" vertex="1" parent="1">
          <mxGeometry x="580" y="300" width="140" height="140" as="geometry" />
        </mxCell>
        <mxCell id="-VFY3AdVCU0dmX2qWyix-18" value="&lt;span style=&quot;font-size: 18px;&quot;&gt;9&lt;/span&gt;" style="ellipse;whiteSpace=wrap;html=1;aspect=fixed;" vertex="1" parent="1">
          <mxGeometry x="625" y="300" width="50" height="50" as="geometry" />
        </mxCell>
        <mxCell id="-VFY3AdVCU0dmX2qWyix-19" value="&lt;font style=&quot;font-size: 16px;&quot;&gt;Forrest Gump&lt;/font&gt;" style="whiteSpace=wrap;html=1;aspect=fixed;rounded=1;arcSize=25;" vertex="1" parent="1">
          <mxGeometry x="1440" y="1320" width="140" height="140" as="geometry" />
        </mxCell>
        <mxCell id="-VFY3AdVCU0dmX2qWyix-20" value="&lt;span style=&quot;font-size: 18px;&quot;&gt;10&lt;/span&gt;" style="ellipse;whiteSpace=wrap;html=1;aspect=fixed;" vertex="1" parent="1">
          <mxGeometry x="1485" y="1320" width="50" height="50" as="geometry" />
        </mxCell>
        <mxCell id="zN4N-_m1E_PW28Xje5zN-22" style="edgeStyle=orthogonalEdgeStyle;rounded=0;orthogonalLoop=1;jettySize=auto;html=1;" edge="1" parent="1" source="zN4N-_m1E_PW28Xje5zN-1" target="-VFY3AdVCU0dmX2qWyix-3">
          <mxGeometry relative="1" as="geometry" />
        </mxCell>
        <mxCell id="zN4N-_m1E_PW28Xje5zN-1" value="&lt;font style=&quot;font-size: 16px;&quot;&gt;Morgan Freeman&lt;/font&gt;" style="ellipse;whiteSpace=wrap;html=1;aspect=fixed;" vertex="1" parent="1">
          <mxGeometry x="990" y="-250" width="140" height="140" as="geometry" />
        </mxCell>
        <mxCell id="zN4N-_m1E_PW28Xje5zN-2" value="&lt;font style=&quot;font-size: 18px;&quot;&gt;2&lt;/font&gt;" style="ellipse;whiteSpace=wrap;html=1;aspect=fixed;" vertex="1" parent="1">
          <mxGeometry x="1035" y="-250" width="50" height="50" as="geometry" />
        </mxCell>
        <mxCell id="zN4N-_m1E_PW28Xje5zN-21" style="edgeStyle=orthogonalEdgeStyle;rounded=0;orthogonalLoop=1;jettySize=auto;html=1;entryX=0;entryY=0.5;entryDx=0;entryDy=0;" edge="1" parent="1" source="zN4N-_m1E_PW28Xje5zN-3" target="-VFY3AdVCU0dmX2qWyix-3">
          <mxGeometry relative="1" as="geometry" />
        </mxCell>
        <mxCell id="zN4N-_m1E_PW28Xje5zN-3" value="&lt;font style=&quot;font-size: 16px;&quot;&gt;Tim Robbins&lt;/font&gt;" style="ellipse;whiteSpace=wrap;html=1;aspect=fixed;" vertex="1" parent="1">
          <mxGeometry x="990" y="-470" width="140" height="140" as="geometry" />
        </mxCell>
        <mxCell id="zN4N-_m1E_PW28Xje5zN-4" value="&lt;font style=&quot;font-size: 18px;&quot;&gt;1&lt;/font&gt;" style="ellipse;whiteSpace=wrap;html=1;aspect=fixed;" vertex="1" parent="1">
          <mxGeometry x="1035" y="-470" width="50" height="50" as="geometry" />
        </mxCell>
        <mxCell id="zN4N-_m1E_PW28Xje5zN-23" style="edgeStyle=orthogonalEdgeStyle;rounded=0;orthogonalLoop=1;jettySize=auto;html=1;entryX=0;entryY=0.5;entryDx=0;entryDy=0;" edge="1" parent="1" source="zN4N-_m1E_PW28Xje5zN-5" target="-VFY3AdVCU0dmX2qWyix-1">
          <mxGeometry relative="1" as="geometry" />
        </mxCell>
        <mxCell id="zN4N-_m1E_PW28Xje5zN-5" value="&lt;font style=&quot;font-size: 16px;&quot;&gt;Marlon Brando&lt;/font&gt;" style="ellipse;whiteSpace=wrap;html=1;aspect=fixed;" vertex="1" parent="1">
          <mxGeometry x="990" y="-40" width="140" height="140" as="geometry" />
        </mxCell>
        <mxCell id="zN4N-_m1E_PW28Xje5zN-6" value="&lt;font style=&quot;font-size: 18px;&quot;&gt;3&lt;/font&gt;" style="ellipse;whiteSpace=wrap;html=1;aspect=fixed;" vertex="1" parent="1">
          <mxGeometry x="1035" y="-40" width="50" height="50" as="geometry" />
        </mxCell>
        <mxCell id="zN4N-_m1E_PW28Xje5zN-25" style="edgeStyle=orthogonalEdgeStyle;rounded=0;orthogonalLoop=1;jettySize=auto;html=1;entryX=0;entryY=0.5;entryDx=0;entryDy=0;" edge="1" parent="1" source="zN4N-_m1E_PW28Xje5zN-7" target="-VFY3AdVCU0dmX2qWyix-1">
          <mxGeometry relative="1" as="geometry" />
        </mxCell>
        <mxCell id="zN4N-_m1E_PW28Xje5zN-26" style="edgeStyle=orthogonalEdgeStyle;rounded=0;orthogonalLoop=1;jettySize=auto;html=1;entryX=0;entryY=0.5;entryDx=0;entryDy=0;" edge="1" parent="1" source="zN4N-_m1E_PW28Xje5zN-7" target="-VFY3AdVCU0dmX2qWyix-5">
          <mxGeometry relative="1" as="geometry">
            <Array as="points">
              <mxPoint x="1060" y="370" />
            </Array>
          </mxGeometry>
        </mxCell>
        <mxCell id="zN4N-_m1E_PW28Xje5zN-7" value="&lt;font style=&quot;font-size: 16px;&quot;&gt;Al Pacino&lt;/font&gt;" style="ellipse;whiteSpace=wrap;html=1;aspect=fixed;" vertex="1" parent="1">
          <mxGeometry x="990" y="160" width="140" height="140" as="geometry" />
        </mxCell>
        <mxCell id="zN4N-_m1E_PW28Xje5zN-8" value="&lt;font style=&quot;font-size: 18px;&quot;&gt;4&lt;/font&gt;" style="ellipse;whiteSpace=wrap;html=1;aspect=fixed;" vertex="1" parent="1">
          <mxGeometry x="1035" y="160" width="50" height="50" as="geometry" />
        </mxCell>
        <mxCell id="zN4N-_m1E_PW28Xje5zN-9" value="&lt;font style=&quot;font-size: 16px;&quot;&gt;Robert De Niro&lt;/font&gt;" style="ellipse;whiteSpace=wrap;html=1;aspect=fixed;" vertex="1" parent="1">
          <mxGeometry x="990" y="1710" width="140" height="140" as="geometry" />
        </mxCell>
        <mxCell id="zN4N-_m1E_PW28Xje5zN-10" value="&lt;font style=&quot;font-size: 18px;&quot;&gt;5&lt;/font&gt;" style="ellipse;whiteSpace=wrap;html=1;aspect=fixed;" vertex="1" parent="1">
          <mxGeometry x="1035" y="1710" width="50" height="50" as="geometry" />
        </mxCell>
        <mxCell id="zN4N-_m1E_PW28Xje5zN-27" style="edgeStyle=orthogonalEdgeStyle;rounded=0;orthogonalLoop=1;jettySize=auto;html=1;entryX=0;entryY=0.5;entryDx=0;entryDy=0;" edge="1" parent="1" source="zN4N-_m1E_PW28Xje5zN-11" target="-VFY3AdVCU0dmX2qWyix-15">
          <mxGeometry relative="1" as="geometry" />
        </mxCell>
        <mxCell id="zN4N-_m1E_PW28Xje5zN-34" style="edgeStyle=orthogonalEdgeStyle;rounded=0;orthogonalLoop=1;jettySize=auto;html=1;entryX=1;entryY=0.5;entryDx=0;entryDy=0;" edge="1" parent="1" source="zN4N-_m1E_PW28Xje5zN-11" target="-VFY3AdVCU0dmX2qWyix-11">
          <mxGeometry relative="1" as="geometry">
            <Array as="points">
              <mxPoint x="830" y="545" />
              <mxPoint x="830" y="650" />
            </Array>
          </mxGeometry>
        </mxCell>
        <mxCell id="zN4N-_m1E_PW28Xje5zN-35" style="edgeStyle=orthogonalEdgeStyle;rounded=0;orthogonalLoop=1;jettySize=auto;html=1;entryX=1;entryY=0.5;entryDx=0;entryDy=0;" edge="1" parent="1" source="zN4N-_m1E_PW28Xje5zN-11" target="-VFY3AdVCU0dmX2qWyix-17">
          <mxGeometry relative="1" as="geometry">
            <Array as="points">
              <mxPoint x="830" y="545" />
              <mxPoint x="830" y="370" />
            </Array>
          </mxGeometry>
        </mxCell>
        <mxCell id="zN4N-_m1E_PW28Xje5zN-11" value="&lt;font style=&quot;font-size: 16px;&quot;&gt;Christian Bale&lt;/font&gt;" style="ellipse;whiteSpace=wrap;html=1;aspect=fixed;" vertex="1" parent="1">
          <mxGeometry x="990" y="475" width="140" height="140" as="geometry" />
        </mxCell>
        <mxCell id="zN4N-_m1E_PW28Xje5zN-12" value="&lt;font style=&quot;font-size: 18px;&quot;&gt;6&lt;/font&gt;" style="ellipse;whiteSpace=wrap;html=1;aspect=fixed;" vertex="1" parent="1">
          <mxGeometry x="1035" y="475" width="50" height="50" as="geometry" />
        </mxCell>
        <mxCell id="zN4N-_m1E_PW28Xje5zN-28" style="edgeStyle=orthogonalEdgeStyle;rounded=0;orthogonalLoop=1;jettySize=auto;html=1;entryX=0;entryY=0.5;entryDx=0;entryDy=0;" edge="1" parent="1" source="zN4N-_m1E_PW28Xje5zN-13" target="-VFY3AdVCU0dmX2qWyix-15">
          <mxGeometry relative="1" as="geometry" />
        </mxCell>
        <mxCell id="zN4N-_m1E_PW28Xje5zN-13" value="&lt;font style=&quot;font-size: 16px;&quot;&gt;Heath Ledger&lt;/font&gt;" style="ellipse;whiteSpace=wrap;html=1;aspect=fixed;" vertex="1" parent="1">
          <mxGeometry x="990" y="685" width="140" height="140" as="geometry" />
        </mxCell>
        <mxCell id="zN4N-_m1E_PW28Xje5zN-14" value="&lt;font style=&quot;font-size: 18px;&quot;&gt;7&lt;/font&gt;" style="ellipse;whiteSpace=wrap;html=1;aspect=fixed;" vertex="1" parent="1">
          <mxGeometry x="1035" y="685" width="50" height="50" as="geometry" />
        </mxCell>
        <mxCell id="zN4N-_m1E_PW28Xje5zN-33" style="edgeStyle=orthogonalEdgeStyle;rounded=0;orthogonalLoop=1;jettySize=auto;html=1;entryX=0.5;entryY=1;entryDx=0;entryDy=0;" edge="1" parent="1" source="zN4N-_m1E_PW28Xje5zN-15" target="-VFY3AdVCU0dmX2qWyix-11">
          <mxGeometry relative="1" as="geometry" />
        </mxCell>
        <mxCell id="zN4N-_m1E_PW28Xje5zN-37" style="edgeStyle=orthogonalEdgeStyle;rounded=0;orthogonalLoop=1;jettySize=auto;html=1;" edge="1" parent="1" source="zN4N-_m1E_PW28Xje5zN-15" target="-VFY3AdVCU0dmX2qWyix-19">
          <mxGeometry relative="1" as="geometry" />
        </mxCell>
        <mxCell id="zN4N-_m1E_PW28Xje5zN-15" value="&lt;font style=&quot;font-size: 16px;&quot;&gt;Jack Nicholson&lt;/font&gt;" style="ellipse;whiteSpace=wrap;html=1;aspect=fixed;" vertex="1" parent="1">
          <mxGeometry x="990" y="1320" width="140" height="140" as="geometry" />
        </mxCell>
        <mxCell id="zN4N-_m1E_PW28Xje5zN-16" value="&lt;font style=&quot;font-size: 18px;&quot;&gt;8&lt;/font&gt;" style="ellipse;whiteSpace=wrap;html=1;aspect=fixed;" vertex="1" parent="1">
          <mxGeometry x="1035" y="1320" width="50" height="50" as="geometry" />
        </mxCell>
        <mxCell id="zN4N-_m1E_PW28Xje5zN-29" style="edgeStyle=orthogonalEdgeStyle;rounded=0;orthogonalLoop=1;jettySize=auto;html=1;entryX=0;entryY=0.5;entryDx=0;entryDy=0;" edge="1" parent="1" source="zN4N-_m1E_PW28Xje5zN-17" target="-VFY3AdVCU0dmX2qWyix-7">
          <mxGeometry relative="1" as="geometry" />
        </mxCell>
        <mxCell id="zN4N-_m1E_PW28Xje5zN-17" value="&lt;font style=&quot;font-size: 16px;&quot;&gt;Henry Fonda&lt;/font&gt;" style="ellipse;whiteSpace=wrap;html=1;aspect=fixed;" vertex="1" parent="1">
          <mxGeometry x="990" y="880" width="140" height="140" as="geometry" />
        </mxCell>
        <mxCell id="zN4N-_m1E_PW28Xje5zN-18" value="&lt;font style=&quot;font-size: 18px;&quot;&gt;9&lt;/font&gt;" style="ellipse;whiteSpace=wrap;html=1;aspect=fixed;" vertex="1" parent="1">
          <mxGeometry x="1035" y="880" width="50" height="50" as="geometry" />
        </mxCell>
        <mxCell id="zN4N-_m1E_PW28Xje5zN-30" style="edgeStyle=orthogonalEdgeStyle;rounded=0;orthogonalLoop=1;jettySize=auto;html=1;entryX=0;entryY=0.5;entryDx=0;entryDy=0;" edge="1" parent="1" source="zN4N-_m1E_PW28Xje5zN-19" target="-VFY3AdVCU0dmX2qWyix-9">
          <mxGeometry relative="1" as="geometry" />
        </mxCell>
        <mxCell id="zN4N-_m1E_PW28Xje5zN-19" value="&lt;font style=&quot;font-size: 16px;&quot;&gt;Liam Neeson&lt;/font&gt;" style="ellipse;whiteSpace=wrap;html=1;aspect=fixed;" vertex="1" parent="1">
          <mxGeometry x="990" y="1086" width="140" height="140" as="geometry" />
        </mxCell>
        <mxCell id="zN4N-_m1E_PW28Xje5zN-20" value="&lt;font style=&quot;font-size: 18px;&quot;&gt;10&lt;/font&gt;" style="ellipse;whiteSpace=wrap;html=1;aspect=fixed;" vertex="1" parent="1">
          <mxGeometry x="1035" y="1086" width="50" height="50" as="geometry" />
        </mxCell>
      </root>
    </mxGraphModel>
  </diagram>
</mxfile>
